<svg width="25" height="20" viewBox="0 0 25 20" fill="none" xmlns="http://www.w3.org/2000/svg">
<path d="M19.6538 7.87738C19.9347 7.87738 20.1624 7.64969 20.1624 7.3688V5.73734C20.1624 5.45645 19.9347 5.22876 19.6538 5.22876L18.93 5.23317L16.5547 7.87738H19.6538Z" fill="#666666"/>
<path d="M4.40898 7.87718H7.53249L5.11604 5.22864H4.40898C4.12808 5.22864 3.90039 5.45633 3.90039 5.73722V7.36855C3.90039 7.64949 4.12808 7.87718 4.40898 7.87718Z" fill="#666666"/>
<path d="M12.3228 10.5L17.036 5.22876H7.02637L11.817 10.502C11.9528 10.6515 12.1881 10.6505 12.3228 10.5Z" fill="#666666"/>
<path d="M13.6493 17.9179H12.7737V11.9993C12.5637 12.1206 12.3237 12.1868 12.0761 12.1878C12.0743 12.1878 12.0724 12.1878 12.0706 12.1878C11.8212 12.1878 11.5791 12.1215 11.3674 11.9993V17.9179H10.4122C10.0238 17.9179 9.70898 18.2328 9.70898 18.6211C9.70898 19.0095 10.0238 19.3243 10.4122 19.3243H13.6494C14.0377 19.3243 14.3526 19.0095 14.3526 18.6211C14.3526 18.2328 14.0377 17.9179 13.6493 17.9179Z" fill="#666666"/>
<path d="M5.96192 9.83363H1.43858V1.49846C1.43858 1.11012 1.12374 0.795288 0.735402 0.795288C0.347062 0.795288 0.0322266 1.11012 0.0322266 1.49846V18.6774C0.0322266 19.0657 0.347062 19.3806 0.735402 19.3806C1.12374 19.3806 1.43858 19.0657 1.43858 18.6774V13.425H6.55128V18.6774C6.55128 19.0657 6.86611 19.3806 7.25445 19.3806C7.64279 19.3806 7.95763 19.0657 7.95763 18.6774V11.8293C7.95763 10.7289 7.06234 9.83363 5.96192 9.83363Z" fill="#666666"/>
<path d="M23.3284 0.795288C22.94 0.795288 22.6252 1.11012 22.6252 1.49846V9.83363H18.2066C17.1062 9.83363 16.2109 10.7289 16.2109 11.8293V18.6774C16.2109 19.0657 16.5258 19.3806 16.9141 19.3806C17.3024 19.3806 17.6173 19.0657 17.6173 18.6774V13.4239H22.6252V18.6774C22.6252 19.0657 22.9401 19.3806 23.3284 19.3806C23.7167 19.3806 24.0316 19.0657 24.0316 18.6774V1.49846C24.0315 1.11012 23.7167 0.795288 23.3284 0.795288Z" fill="#666666"/>
</svg>
