<svg width="82" height="24" viewBox="0 0 82 24" fill="none" xmlns="http://www.w3.org/2000/svg">
<path d="M18.6238 14.5328L13.7883 9.69724L11.5127 15.1017L10.9438 11.5461C9.66384 7.27947 5.53939 2.58613 0.988281 0.310577L7.38828 23.0661H15.0683L18.6238 14.5328Z" fill="#051244"/>
<path d="M31.85 23.0663L25.7345 16.8085L24.5967 23.0663H31.85Z" fill="#051244"/>
<path d="M48.2054 14.2484C48.7743 14.8173 49.0587 15.244 48.9165 15.8128C48.9165 17.5195 46.6409 18.3728 44.6498 18.3728C41.8054 18.3728 40.2409 17.9462 37.8231 16.9506L36.8276 16.524L35.832 22.3551C37.5387 23.0662 40.6676 23.7773 43.9387 23.7773C48.4898 23.7773 52.1876 22.4973 54.3209 20.2217L48.2054 14.2484Z" fill="#051244"/>
<path d="M56.4551 23.066H63.1395L64.5617 18.7993H73.664L74.5173 23.066H81.344L78.9262 12.6838L70.3929 4.43489L70.8195 6.71044C70.8195 6.71044 72.2417 13.1104 72.5262 14.5327H66.5529C67.1217 13.1104 69.3973 6.99489 69.3973 6.99489C69.3973 6.99489 69.9662 5.43045 70.3929 4.43489" fill="#051244"/>
</svg>
