<svg width="126" height="39" viewBox="0 0 126 39" fill="none" xmlns="http://www.w3.org/2000/svg">
<path d="M66.2625 9.65761C66.2625 11.0429 65.1145 12.1764 63.7114 12.1764C62.3084 12.1764 61.1604 11.0429 61.1604 9.65761C61.1604 8.27228 62.2446 7.13882 63.7114 7.13882C65.1783 7.1703 66.2625 8.30376 66.2625 9.65761ZM55.8033 14.6952C55.8033 14.9156 55.8033 15.3249 55.8033 15.3249C55.8033 15.3249 54.5915 13.7821 52.0086 13.7821C47.7676 13.7821 44.4194 16.9936 44.4194 21.4015C44.4194 25.8094 47.7038 29.0208 52.0086 29.0208C54.6234 29.0208 55.8033 27.4466 55.8033 27.4466V28.1078C55.8033 28.4226 56.0265 28.643 56.3454 28.643H59.5023V14.16C59.5023 14.16 56.6005 14.16 56.3454 14.16C56.0265 14.16 55.8033 14.4433 55.8033 14.6952ZM55.8033 23.9833C55.2293 24.8334 54.0494 25.5575 52.6464 25.5575C50.1591 25.5575 48.2459 24.0147 48.2459 21.4015C48.2459 18.7882 50.1591 17.2455 52.6464 17.2455C54.0176 17.2455 55.2612 18.0011 55.8033 18.8197V23.9833ZM61.862 14.16H65.6247V28.643H61.862V14.16ZM117.825 13.7821C115.242 13.7821 114.03 15.3249 114.03 15.3249V7.20179H110.268V28.6745C110.268 28.6745 113.169 28.6745 113.424 28.6745C113.743 28.6745 113.967 28.3911 113.967 28.1393V27.4781C113.967 27.4781 115.178 29.0523 117.761 29.0523C122.002 29.0523 125.35 25.8094 125.35 21.433C125.382 17.0251 122.034 13.7821 117.825 13.7821ZM117.219 25.526C115.784 25.526 114.636 24.8019 114.062 23.9518V18.7882C114.636 18.0326 115.912 17.214 117.219 17.214C119.706 17.214 121.62 18.7568 121.62 21.37C121.62 23.9833 119.706 25.526 117.219 25.526ZM108.354 20.0476V28.6745H104.592V20.4884C104.592 18.0956 103.826 17.1195 101.69 17.1195C100.542 17.1195 99.3938 17.6863 98.6604 18.5364V28.643H94.8977V14.16H97.8632C98.1821 14.16 98.4053 14.4433 98.4053 14.6952V15.3249C99.4895 14.1914 100.956 13.7821 102.391 13.7821C104.018 13.7821 105.389 14.2544 106.505 15.1675C107.844 16.238 108.354 17.6233 108.354 20.0476ZM85.8097 13.7821C83.2267 13.7821 82.015 15.3249 82.015 15.3249V7.20179H78.2523V28.6745C78.2523 28.6745 81.154 28.6745 81.4091 28.6745C81.728 28.6745 81.9512 28.3911 81.9512 28.1393V27.4781C81.9512 27.4781 83.163 29.0523 85.7459 29.0523C89.987 29.0523 93.3352 25.8094 93.3352 21.433C93.3989 17.0251 90.0826 13.7821 85.8097 13.7821ZM85.2038 25.526C83.7688 25.526 82.6209 24.8019 82.0469 23.9518V18.7882C82.6209 18.0326 83.8964 17.214 85.2038 17.214C87.691 17.214 89.6043 18.7568 89.6043 21.37C89.6043 23.9833 87.691 25.526 85.2038 25.526ZM75.0316 13.7821C76.1796 13.7821 76.7535 13.971 76.7535 13.971V17.4029C76.7535 17.4029 73.6285 16.3639 71.6834 18.5678V28.706H67.9206V14.16C67.9206 14.16 70.8224 14.16 71.0775 14.16C71.3964 14.16 71.6196 14.4433 71.6196 14.6952V15.3249C72.353 14.5063 73.8836 13.7821 75.0316 13.7821ZM36.1285 27.3521C35.9372 26.8799 35.7459 26.3761 35.5546 25.9668C35.2357 25.2741 34.9168 24.613 34.6617 24.0147L34.6298 23.9833C31.9512 18.19 29.0495 12.3338 25.9882 6.57209L25.8607 6.35169C25.5418 5.78497 25.2229 5.15527 24.9359 4.52557C24.5533 3.8329 24.1706 3.10875 23.5329 2.41608C22.2892 0.873317 20.5035 0.0232239 18.5903 0.0232239C16.6451 0.0232239 14.8913 0.873318 13.5839 2.32162C13.0099 3.01429 12.5635 3.73845 12.1808 4.43111C11.862 5.06081 11.5431 5.65903 11.2561 6.25724L11.1285 6.47763C8.13108 12.2709 5.19741 18.1271 2.48695 23.8888L2.45506 23.9518C2.16807 24.5815 1.88108 25.2112 1.56221 25.9038C1.37088 26.3131 1.17955 26.7854 0.988227 27.2892C0.478023 28.706 0.318584 30.0598 0.509911 31.4452C0.924451 34.3418 2.90149 36.7661 5.58006 37.8366C6.60047 38.2459 7.65277 38.4663 8.73695 38.4663C9.05583 38.4663 9.43848 38.4348 9.75736 38.4034C11.0329 38.2459 12.3722 37.8366 13.6477 37.081C15.2421 36.1994 16.7727 34.9085 18.4946 33.0824C20.2165 34.94 21.779 36.1994 23.3415 37.081C24.6171 37.8051 25.9563 38.2459 27.2318 38.4034C27.5507 38.4348 27.9334 38.4663 28.2523 38.4663C29.3364 38.4663 30.4525 38.2774 31.4091 37.8366C34.1515 36.7661 36.0648 34.2788 36.4793 31.4452C36.7982 30.1228 36.6387 28.769 36.1285 27.3521ZM18.5265 29.3357C16.4219 26.7224 15.0507 24.2351 14.5724 22.1571C14.3811 21.2756 14.3492 20.4884 14.4449 19.7958C14.5086 19.1661 14.7637 18.6308 15.0826 18.19C15.816 17.151 17.0597 16.4898 18.5265 16.4898C19.9933 16.4898 21.2688 17.1195 21.9704 18.19C22.2892 18.6623 22.5125 19.1975 22.6081 19.7958C22.7357 20.4884 22.6719 21.307 22.4806 22.1571C22.0023 24.2351 20.6311 26.691 18.5265 29.3357ZM34.0877 31.1618C33.8007 33.1769 32.4614 34.9085 30.5482 35.6642C29.6234 36.042 28.603 36.1679 27.5826 36.042C26.5941 35.916 25.6375 35.6327 24.6171 35.0345C23.214 34.2788 21.8109 33.0824 20.1528 31.2878C22.7357 28.1708 24.2982 25.3056 24.8722 22.7553C25.1591 21.5589 25.191 20.4884 25.0635 19.4809C24.904 18.5049 24.5533 17.6233 24.0112 16.8677C22.7994 15.136 20.7586 14.1285 18.4946 14.1285C16.2306 14.1285 14.1898 15.1675 12.978 16.8677C12.4359 17.6233 12.0852 18.5364 11.9257 19.4809C11.7663 20.4884 11.7982 21.5904 12.1171 22.7553C12.691 25.3056 14.3173 28.2022 16.8364 31.3192C15.2421 33.0824 13.8071 34.2788 12.3722 35.066C11.3517 35.6327 10.3951 35.9475 9.40659 36.0735C8.3543 36.1994 7.33389 36.042 6.44103 35.6957C4.52777 34.94 3.15659 33.1769 2.90149 31.1933C2.77394 30.2173 2.8696 29.2727 3.25226 28.2022C3.37981 27.8244 3.57114 27.4466 3.76246 26.9743C4.04945 26.3446 4.33644 25.7149 4.65532 25.0537L4.68721 24.9908C7.36578 19.2605 10.2676 13.3728 13.265 7.67406L13.3926 7.45367C13.7114 6.88694 14.0303 6.25724 14.3173 5.69051C14.6362 5.06081 14.987 4.49408 15.4015 3.99032C16.2306 3.07726 17.3148 2.5735 18.5265 2.5735C19.7382 2.5735 20.8224 3.07726 21.6515 3.99032C22.066 4.49408 22.4168 5.06081 22.7357 5.69051C23.0546 6.25724 23.3734 6.88694 23.6604 7.45367L23.788 7.67406C26.7535 13.4043 29.6553 19.292 32.3339 25.0223V25.0537C32.6528 25.6834 32.9079 26.3761 33.2267 26.9743C33.4181 27.4466 33.6094 27.8244 33.7369 28.2022C34.1196 29.1783 34.2472 30.1543 34.0877 31.1618Z" fill="#244D4D"/>
</svg>
