<svg width="50" height="35" viewBox="0 0 50 35" fill="none" xmlns="http://www.w3.org/2000/svg">
<path d="M40.6901 4.71826H35.8789V1.47607C35.8789 0.66709 35.223 0.0112305 34.4141 0.0112305H1.46484C0.655859 0.0112305 0 0.66709 0 1.47607V28.1492C0 28.9582 0.655859 29.6141 1.46484 29.6141H6.45313C8.04727 35.8524 16.851 35.8482 18.4427 29.6141H31.5572C33.1514 35.8524 41.9551 35.8482 43.5468 29.6141H48.5352C49.3441 29.6141 50 28.9582 50 28.1492V14.0281C50 8.89463 45.8235 4.71826 40.6901 4.71826V4.71826ZM12.4479 31.3914C10.6602 31.3914 9.20576 29.9369 9.20576 28.1492C9.38379 23.848 15.5128 23.8493 15.6901 28.1492C15.6901 29.9369 14.2356 31.3914 12.4479 31.3914V31.3914ZM32.9492 24.0433C32.2866 24.7853 31.8009 25.6876 31.5572 26.6843H18.4427C16.8485 20.446 8.04482 20.4502 6.45313 26.6843H2.92969V2.94082H32.9492V24.0433ZM37.552 31.3914C35.7643 31.3914 34.3099 29.9369 34.3099 28.1492C34.4879 23.848 40.6169 23.8493 40.7942 28.1492C40.7942 29.9369 39.3398 31.3914 37.552 31.3914ZM47.0703 26.6844H43.5484C42.8891 23.9859 40.4508 21.9773 37.5521 21.9773H35.8789V7.64795H39.2253V17.1662C39.2253 17.9752 39.8812 18.6311 40.6901 18.6311H47.0703V26.6844ZM47.0703 15.7013H42.155V7.81758C44.9692 8.48135 47.0703 11.0141 47.0703 14.0281V15.7013Z" fill="#244D4D"/>
</svg>
