<svg width="50" height="50" viewBox="0 0 50 50" fill="none" xmlns="http://www.w3.org/2000/svg">
<path d="M47.3217 17.5377C46.6619 15.4947 46.9432 12.428 45.2283 10.0602C43.5 7.67365 40.494 6.99533 38.7967 5.75393C37.1172 4.52561 35.5547 1.85266 32.7296 0.930782C29.9842 0.0348836 27.1768 1.25061 25 1.25061C22.8235 1.25061 20.0163 0.0345907 17.2704 0.930684C14.4458 1.85236 12.882 4.5259 11.2036 5.75363C9.50811 6.99358 6.4999 7.67375 4.77187 10.0599C3.0585 12.4258 3.33691 15.4995 2.67832 17.5376C2.05156 19.4774 0 21.8054 0 24.8202C0 27.8369 2.04922 30.156 2.67832 32.1028C3.33809 34.1457 3.05684 37.2124 4.77168 39.5803C6.4999 41.9669 9.50576 42.6451 11.2033 43.8866C12.8825 45.1148 14.4453 47.7879 17.2704 48.7097C20.014 49.605 22.8258 48.3899 25 48.3899C27.1712 48.3899 29.9896 49.6037 32.7296 48.7098C35.5543 47.7881 37.1171 45.1152 38.7964 43.8868C40.4919 42.6469 43.5001 41.9667 45.2281 39.5806C46.9416 37.2146 46.663 34.1411 47.3217 32.1029C47.9484 30.163 50 27.835 50 24.8202C50 21.8037 47.9513 19.4854 47.3217 17.5377ZM43.6048 30.9017C42.8357 33.2821 43.0372 35.946 42.0646 37.2892C41.0788 38.6502 38.4891 39.2719 36.4907 40.7336C34.5143 42.179 33.129 44.4703 31.5179 44.996C29.9937 45.4935 27.5097 44.4834 25.0001 44.4834C22.4722 44.4834 20.0138 45.4956 18.4822 44.996C16.8713 44.4703 15.488 42.1806 13.5094 40.7335C11.5229 39.2807 8.91836 38.6462 7.93545 37.289C6.96592 35.9503 7.15977 33.2679 6.39541 30.9018C5.64619 28.5835 3.90625 26.5762 3.90625 24.8202C3.90625 23.0625 5.64463 21.0621 6.39522 18.7388C7.16426 16.3585 6.96279 13.6944 7.93545 12.3513C8.92061 10.9911 11.5123 10.3674 13.5094 8.90686C15.4921 7.45676 16.8687 5.17092 18.482 4.64445C20.005 4.14758 22.4971 5.15705 24.9999 5.15705C27.5324 5.15705 29.9847 4.14416 31.5178 4.64445C33.1285 5.17004 34.513 7.46067 36.4907 8.90695C38.477 10.3598 41.0816 10.9943 42.0646 12.3514C43.0343 13.6904 42.8394 16.37 43.6046 18.7386V18.7387C44.3538 21.057 46.0938 23.0643 46.0938 24.8202C46.0938 26.578 44.3554 28.5783 43.6048 30.9017ZM33.9983 18.5512C34.7611 19.314 34.7611 20.5506 33.9983 21.3133L24.2224 31.0893C23.4596 31.8521 22.2229 31.852 21.4602 31.0893L16.0018 25.6309C15.239 24.8681 15.2389 23.6315 16.0017 22.8688C16.7645 22.1061 18.0013 22.106 18.7638 22.8688L22.8412 26.9461L31.236 18.5513C31.9988 17.7885 33.2355 17.7885 33.9983 18.5512Z" fill="#244D4D"/>
</svg>
